{"asset":{"version":"2.0","generator":"Blockbench 4.9.3 glTF exporter"},"scenes":[{"nodes":[20],"name":"blockbench_export"}],"scene":0,"nodes":[{"name":"Rightbackfoot","mesh":0},{"name":"Leftbackfoot","mesh":1},{"rotation":[0,0,-0.7071067811865475,0.7071067811865476],"translation":[0.375,0.1875,0.1875],"name":"Rightbackleg","mesh":2},{"rotation":[0,0,0.7071067811865475,0.7071067811865476],"translation":[-0.375,0.1875,0.1875],"name":"Leftbackleg","mesh":3},{"translation":[0,0.375,0],"name":"body","mesh":4},{"rotation":[0.3826834323650898,0,0,0.9238795325112867],"name":"Leftfrontleft","mesh":5},{"name":"Leftfoot","mesh":6},{"translation":[0.4375,-0.25,0.3125],"name":"leftfrontfoot","children":[6]},{"translation":[-0.375,0.25,-0.375],"name":"Leftfrontleg","children":[5,7]},{"rotation":[0.3826834323650898,0,0,0.9238795325112867],"name":"Leftfrontright","mesh":7},{"name":"Rightfoot","mesh":8},{"translation":[-0.4375,-0.25,0.3125],"name":"rightfrontfoot","children":[10]},{"translation":[0.375,0.25,-0.375],"name":"Rightfrontleg","children":[9,11]},{"translation":[0,-0.0625,-0.015625],"name":"lefteye","mesh":9},{"translation":[-0.3125,0.75,-0.15625],"name":"lefteye","children":[13]},{"translation":[0,-0.0625,-0.03125],"name":"righteye","mesh":10},{"translation":[0.3125,0.75,-0.140625],"name":"righteye","children":[15]},{"translation":[0,0.3125,-0.125],"name":"tongue","mesh":11},{"name":"tongue","children":[17]},{"name":"frog","children":[0,1,2,3,4,8,12,14,16,18]},{"children":[19]}],"bufferViews":[{"buffer":0,"byteOffset":0,"byteLength":288,"target":34962,"byteStride":12},{"buffer":0,"byteOffset":288,"byteLength":288,"target":34962,"byteStride":12},{"buffer":0,"byteOffset":576,"byteLength":192,"target":34962,"byteStride":8},{"buffer":0,"byteOffset":768,"byteLength":72,"target":34963},{"buffer":0,"byteOffset":840,"byteLength":288,"target":34962,"byteStride":12},{"buffer":0,"byteOffset":1128,"byteLength":288,"target":34962,"byteStride":12},{"buffer":0,"byteOffset":1416,"byteLength":192,"target":34962,"byteStride":8},{"buffer":0,"byteOffset":1608,"byteLength":72,"target":34963},{"buffer":0,"byteOffset":1680,"byteLength":288,"target":34962,"byteStride":12},{"buffer":0,"byteOffset":1968,"byteLength":288,"target":34962,"byteStride":12},{"buffer":0,"byteOffset":2256,"byteLength":192,"target":34962,"byteStride":8},{"buffer":0,"byteOffset":2448,"byteLength":72,"target":34963},{"buffer":0,"byteOffset":2520,"byteLength":288,"target":34962,"byteStride":12},{"buffer":0,"byteOffset":2808,"byteLength":288,"target":34962,"byteStride":12},{"buffer":0,"byteOffset":3096,"byteLength":192,"target":34962,"byteStride":8},{"buffer":0,"byteOffset":3288,"byteLength":72,"target":34963},{"buffer":0,"byteOffset":3360,"byteLength":672,"target":34962,"byteStride":12},{"buffer":0,"byteOffset":4032,"byteLength":672,"target":34962,"byteStride":12},{"buffer":0,"byteOffset":4704,"byteLength":448,"target":34962,"byteStride":8},{"buffer":0,"byteOffset":5152,"byteLength":168,"target":34963},{"buffer":0,"byteOffset":5320,"byteLength":288,"target":34962,"byteStride":12},{"buffer":0,"byteOffset":5608,"byteLength":288,"target":34962,"byteStride":12},{"buffer":0,"byteOffset":5896,"byteLength":192,"target":34962,"byteStride":8},{"buffer":0,"byteOffset":6088,"byteLength":72,"target":34963},{"buffer":0,"byteOffset":6160,"byteLength":288,"target":34962,"byteStride":12},{"buffer":0,"byteOffset":6448,"byteLength":288,"target":34962,"byteStride":12},{"buffer":0,"byteOffset":6736,"byteLength":192,"target":34962,"byteStride":8},{"buffer":0,"byteOffset":6928,"byteLength":72,"target":34963},{"buffer":0,"byteOffset":7000,"byteLength":288,"target":34962,"byteStride":12},{"buffer":0,"byteOffset":7288,"byteLength":288,"target":34962,"byteStride":12},{"buffer":0,"byteOffset":7576,"byteLength":192,"target":34962,"byteStride":8},{"buffer":0,"byteOffset":7768,"byteLength":72,"target":34963},{"buffer":0,"byteOffset":7840,"byteLength":288,"target":34962,"byteStride":12},{"buffer":0,"byteOffset":8128,"byteLength":288,"target":34962,"byteStride":12},{"buffer":0,"byteOffset":8416,"byteLength":192,"target":34962,"byteStride":8},{"buffer":0,"byteOffset":8608,"byteLength":72,"target":34963},{"buffer":0,"byteOffset":8680,"byteLength":288,"target":34962,"byteStride":12},{"buffer":0,"byteOffset":8968,"byteLength":288,"target":34962,"byteStride":12},{"buffer":0,"byteOffset":9256,"byteLength":192,"target":34962,"byteStride":8},{"buffer":0,"byteOffset":9448,"byteLength":72,"target":34963},{"buffer":0,"byteOffset":9520,"byteLength":288,"target":34962,"byteStride":12},{"buffer":0,"byteOffset":9808,"byteLength":288,"target":34962,"byteStride":12},{"buffer":0,"byteOffset":10096,"byteLength":192,"target":34962,"byteStride":8},{"buffer":0,"byteOffset":10288,"byteLength":72,"target":34963},{"buffer":0,"byteOffset":10360,"byteLength":288,"target":34962,"byteStride":12},{"buffer":0,"byteOffset":10648,"byteLength":288,"target":34962,"byteStride":12},{"buffer":0,"byteOffset":10936,"byteLength":192,"target":34962,"byteStride":8},{"buffer":0,"byteOffset":11128,"byteLength":72,"target":34963},{"buffer":0,"byteOffset":11200,"byteLength":12},{"buffer":0,"byteOffset":11212,"byteLength":48},{"buffer":0,"byteOffset":11260,"byteLength":4},{"buffer":0,"byteOffset":11264,"byteLength":12},{"buffer":0,"byteOffset":11276,"byteLength":4},{"buffer":0,"byteOffset":11280,"byteLength":12},{"buffer":0,"byteOffset":11292,"byteLength":12},{"buffer":0,"byteOffset":11304,"byteLength":48},{"buffer":0,"byteOffset":11352,"byteLength":12},{"buffer":0,"byteOffset":11364,"byteLength":48},{"buffer":0,"byteOffset":11412,"byteLength":4},{"buffer":0,"byteOffset":11416,"byteLength":12},{"buffer":0,"byteOffset":11428,"byteLength":4},{"buffer":0,"byteOffset":11432,"byteLength":12},{"buffer":0,"byteOffset":11444,"byteLength":12},{"buffer":0,"byteOffset":11456,"byteLength":48},{"buffer":0,"byteOffset":11504,"byteLength":12},{"buffer":0,"byteOffset":11516,"byteLength":48},{"buffer":0,"byteOffset":11564,"byteLength":16},{"buffer":0,"byteOffset":11580,"byteLength":48},{"buffer":0,"byteOffset":11628,"byteLength":16},{"buffer":0,"byteOffset":11644,"byteLength":48},{"buffer":0,"byteOffset":11692,"byteLength":16},{"buffer":0,"byteOffset":11708,"byteLength":64},{"buffer":0,"byteOffset":11772,"byteLength":16},{"buffer":0,"byteOffset":11788,"byteLength":48},{"buffer":0,"byteOffset":11836,"byteLength":16},{"buffer":0,"byteOffset":11852,"byteLength":48}],"buffers":[{"byteLength":11900,"uri":"data:application/octet-stream;base64,"}],"accessors":[{"bufferView":0,"componentType":5126,"count":24,"max":[0.5625,0.0625,0.3125],"min":[0.3125,0,-0.0625],"type":"VEC3"},{"bufferView":1,"componentType":5126,"count":24,"max":[1,1,1],"min":[-1,-1,-1],"type":"VEC3"},{"bufferView":2,"componentType":5126,"count":24,"max":[1,0.8125],"min":[0.25,0.375],"type":"VEC2"},{"bufferView":3,"componentType":5123,"count":36,"max":[23],"min":[0],"type":"SCALAR"},{"bufferView":4,"componentType":5126,"count":24,"max":[-0.3125,0.0625,0.3125],"min":[-0.5625,0,-0.0625],"type":"VEC3"},{"bufferView":5,"componentType":5126,"count":24,"max":[1,1,1],"min":[-1,-1,-1],"type":"VEC3"},{"bufferView":6,"componentType":5126,"count":24,"max":[1,0.84375],"min":[0,0.46875],"type":"VEC2"},{"bufferView":7,"componentType":5123,"count":36,"max":[23],"min":[0],"type":"SCALAR"},{"bufferView":8,"componentType":5126,"count":24,"max":[0.1875,0.25,0.1875],"min":[-0.1875,-4.163336342344337e-17,-0.1875],"type":"VEC3"},{"bufferView":9,"componentType":5126,"count":24,"max":[1,1,1],"min":[-1,-1,-1],"type":"VEC3"},{"bufferView":10,"componentType":5126,"count":24,"max":[0.5625,0.625],"min":[0,0],"type":"VEC2"},{"bufferView":11,"componentType":5123,"count":36,"max":[23],"min":[0],"type":"SCALAR"},{"bufferView":12,"componentType":5126,"count":24,"max":[0.1875,0.25,0.1875],"min":[-0.1875,-4.163336342344337e-17,-0.1875],"type":"VEC3"},{"bufferView":13,"componentType":5126,"count":24,"max":[1,1,1],"min":[-1,-1,-1],"type":"VEC3"},{"bufferView":14,"componentType":5126,"count":24,"max":[0.5625,0.5],"min":[0,0],"type":"VEC2"},{"bufferView":15,"componentType":5123,"count":36,"max":[23],"min":[0],"type":"SCALAR"},{"bufferView":16,"componentType":5126,"count":56,"max":[0.375,0.375,0.4619736671447754],"min":[-0.375,-0.375,-0.375],"type":"VEC3"},{"bufferView":17,"componentType":5126,"count":56,"max":[1,1,1],"min":[-1,-1,-1],"type":"VEC3"},{"bufferView":18,"componentType":5126,"count":56,"max":[0.8125,0.96875],"min":[0,0],"type":"VEC2"},{"bufferView":19,"componentType":5123,"count":84,"max":[55],"min":[0],"type":"SCALAR"},{"bufferView":20,"componentType":5126,"count":24,"max":[0.0625,0.125,0.1875],"min":[-0.0625,-0.1875,0.0625],"type":"VEC3"},{"bufferView":21,"componentType":5126,"count":24,"max":[1,1,1],"min":[-1,-1,-1],"type":"VEC3"},{"bufferView":22,"componentType":5126,"count":24,"max":[0.875,0.96875],"min":[0,0],"type":"VEC2"},{"bufferView":23,"componentType":5123,"count":36,"max":[23],"min":[0],"type":"SCALAR"},{"bufferView":24,"componentType":5126,"count":24,"max":[-0.3125,0.0625,-0.25],"min":[-0.5625,0,-0.625],"type":"VEC3"},{"bufferView":25,"componentType":5126,"count":24,"max":[1,1,1],"min":[-1,-1,-1],"type":"VEC3"},{"bufferView":26,"componentType":5126,"count":24,"max":[0.9375,0.84375],"min":[0.375,0.5],"type":"VEC2"},{"bufferView":27,"componentType":5123,"count":36,"max":[23],"min":[0],"type":"SCALAR"},{"bufferView":28,"componentType":5126,"count":24,"max":[0.0625,0.125,0.1875],"min":[-0.0625,-0.1875,0.0625],"type":"VEC3"},{"bufferView":29,"componentType":5126,"count":24,"max":[1,1,1],"min":[-1,-1,-1],"type":"VEC3"},{"bufferView":30,"componentType":5126,"count":24,"max":[0.90625,0.96875],"min":[0.1875,0.15625],"type":"VEC2"},{"bufferView":31,"componentType":5123,"count":36,"max":[23],"min":[0],"type":"SCALAR"},{"bufferView":32,"componentType":5126,"count":24,"max":[0.5625,0.0625,-0.25],"min":[0.3125,0,-0.625],"type":"VEC3"},{"bufferView":33,"componentType":5126,"count":24,"max":[1,1,1],"min":[-1,-1,-1],"type":"VEC3"},{"bufferView":34,"componentType":5126,"count":24,"max":[1,0.875],"min":[0.4375,0],"type":"VEC2"},{"bufferView":35,"componentType":5123,"count":36,"max":[23],"min":[0],"type":"SCALAR"},{"bufferView":36,"componentType":5126,"count":24,"max":[0.125,0.25,0.109375],"min":[-0.125,0,-0.078125],"type":"VEC3"},{"bufferView":37,"componentType":5126,"count":24,"max":[1,1,1],"min":[-1,-1,-1],"type":"VEC3"},{"bufferView":38,"componentType":5126,"count":24,"max":[0.8125,0.8125],"min":[0.375,0],"type":"VEC2"},{"bufferView":39,"componentType":5123,"count":36,"max":[23],"min":[0],"type":"SCALAR"},{"bufferView":40,"componentType":5126,"count":24,"max":[0.125,0.25,0.109375],"min":[-0.125,0,-0.078125],"type":"VEC3"},{"bufferView":41,"componentType":5126,"count":24,"max":[1,1,1],"min":[-1,-1,-1],"type":"VEC3"},{"bufferView":42,"componentType":5126,"count":24,"max":[0.84375,0.875],"min":[0.5625,0.125],"type":"VEC2"},{"bufferView":43,"componentType":5123,"count":36,"max":[23],"min":[0],"type":"SCALAR"},{"bufferView":44,"componentType":5126,"count":24,"max":[0.0625,0.375,0.0625],"min":[-0.0625,-0.125,-0.0625],"type":"VEC3"},{"bufferView":45,"componentType":5126,"count":24,"max":[1,1,1],"min":[-1,-1,-1],"type":"VEC3"},{"bufferView":46,"componentType":5126,"count":24,"max":[1,0.96875],"min":[0.84375,0.875],"type":"VEC2"},{"bufferView":47,"componentType":5123,"count":36,"max":[23],"min":[0],"type":"SCALAR"},{"bufferView":48,"componentType":5126,"count":3,"max":[1],"min":[0],"type":"SCALAR"},{"bufferView":49,"componentType":5126,"count":3,"max":[0,0.5735764503479004,0,1],"min":[0,0,0,0.8191520571708679],"type":"VEC4"},{"bufferView":50,"componentType":5126,"count":1,"max":[0],"min":[0],"type":"SCALAR"},{"bufferView":51,"componentType":5126,"count":1,"max":[-0.3125,0.75,-0.15625],"min":[-0.3125,0.75,-0.15625],"type":"VEC3"},{"bufferView":52,"componentType":5126,"count":1,"max":[0],"min":[0],"type":"SCALAR"},{"bufferView":53,"componentType":5126,"count":1,"max":[1,1,1],"min":[1,1,1],"type":"VEC3"},{"bufferView":54,"componentType":5126,"count":3,"max":[1],"min":[0],"type":"SCALAR"},{"bufferView":55,"componentType":5126,"count":3,"max":[0,0.5735764503479004,0,1],"min":[0,0,0,0.8191520571708679],"type":"VEC4"},{"bufferView":56,"componentType":5126,"count":3,"max":[1],"min":[0],"type":"SCALAR"},{"bufferView":57,"componentType":5126,"count":3,"max":[0,0,0,1],"min":[0,-0.6755902171134949,0,0.7372773289680481],"type":"VEC4"},{"bufferView":58,"componentType":5126,"count":1,"max":[0],"min":[0],"type":"SCALAR"},{"bufferView":59,"componentType":5126,"count":1,"max":[-0.3125,0.75,-0.15625],"min":[-0.3125,0.75,-0.15625],"type":"VEC3"},{"bufferView":60,"componentType":5126,"count":1,"max":[0],"min":[0],"type":"SCALAR"},{"bufferView":61,"componentType":5126,"count":1,"max":[1,1,1],"min":[1,1,1],"type":"VEC3"},{"bufferView":62,"componentType":5126,"count":3,"max":[1],"min":[0],"type":"SCALAR"},{"bufferView":63,"componentType":5126,"count":3,"max":[0,0,0,1],"min":[0,-0.6427876353263855,0,0.7660444378852844],"type":"VEC4"},{"bufferView":64,"componentType":5126,"count":3,"max":[0.5],"min":[0],"type":"SCALAR"},{"bufferView":65,"componentType":5126,"count":3,"max":[-0.5,0,0,0.8660253882408142],"min":[-0.5,0,0,0.8660253882408142],"type":"VEC4"},{"bufferView":66,"componentType":5126,"count":4,"max":[0.5],"min":[0],"type":"SCALAR"},{"bufferView":67,"componentType":5126,"count":4,"max":[0,0.375,0.625],"min":[0,0,0],"type":"VEC3"},{"bufferView":68,"componentType":5126,"count":4,"max":[0.5],"min":[0],"type":"SCALAR"},{"bufferView":69,"componentType":5126,"count":4,"max":[1,5.5,1],"min":[1,0.4000000059604645,1],"type":"VEC3"},{"bufferView":70,"componentType":5126,"count":4,"max":[0.5],"min":[0],"type":"SCALAR"},{"bufferView":71,"componentType":5126,"count":4,"max":[-0.5,0,0,0.8660253882408142],"min":[-0.6755902171134949,0,0,0.7372773289680481],"type":"VEC4"},{"bufferView":72,"componentType":5126,"count":4,"max":[0.5],"min":[0],"type":"SCALAR"},{"bufferView":73,"componentType":5126,"count":4,"max":[0,0.5,0.75],"min":[0,0.375,0],"type":"VEC3"},{"bufferView":74,"componentType":5126,"count":4,"max":[0.5],"min":[0],"type":"SCALAR"},{"bufferView":75,"componentType":5126,"count":4,"max":[1,5.5,1],"min":[1,0.4000000059604645,1],"type":"VEC3"}],"materials":[{"pbrMetallicRoughness":{"metallicFactor":0,"roughnessFactor":1,"baseColorTexture":{"index":0}},"alphaMode":"MASK","alphaCutoff":0.05,"doubleSided":true}],"textures":[{"sampler":0,"source":0}],"samplers":[{"magFilter":9728,"minFilter":9728,"wrapS":33071,"wrapT":33071}],"images":[{"mimeType":"image/png","uri":"data:image/png;base64,"}],"meshes":[{"primitives":[{"mode":4,"attributes":{"POSITION":0,"NORMAL":1,"TEXCOORD_0":2},"indices":3,"material":0}]},{"primitives":[{"mode":4,"attributes":{"POSITION":4,"NORMAL":5,"TEXCOORD_0":6},"indices":7,"material":0}]},{"primitives":[{"mode":4,"attributes":{"POSITION":8,"NORMAL":9,"TEXCOORD_0":10},"indices":11,"material":0}]},{"primitives":[{"mode":4,"attributes":{"POSITION":12,"NORMAL":13,"TEXCOORD_0":14},"indices":15,"material":0}]},{"primitives":[{"mode":4,"attributes":{"POSITION":16,"NORMAL":17,"TEXCOORD_0":18},"indices":19,"material":0}]},{"primitives":[{"mode":4,"attributes":{"POSITION":20,"NORMAL":21,"TEXCOORD_0":22},"indices":23,"material":0}]},{"primitives":[{"mode":4,"attributes":{"POSITION":24,"NORMAL":25,"TEXCOORD_0":26},"indices":27,"material":0}]},{"primitives":[{"mode":4,"attributes":{"POSITION":28,"NORMAL":29,"TEXCOORD_0":30},"indices":31,"material":0}]},{"primitives":[{"mode":4,"attributes":{"POSITION":32,"NORMAL":33,"TEXCOORD_0":34},"indices":35,"material":0}]},{"primitives":[{"mode":4,"attributes":{"POSITION":36,"NORMAL":37,"TEXCOORD_0":38},"indices":39,"material":0}]},{"primitives":[{"mode":4,"attributes":{"POSITION":40,"NORMAL":41,"TEXCOORD_0":42},"indices":43,"material":0}]},{"primitives":[{"mode":4,"attributes":{"POSITION":44,"NORMAL":45,"TEXCOORD_0":46},"indices":47,"material":0}]}],"animations":[{"name":"look left","samplers":[{"input":48,"output":49,"interpolation":"LINEAR"},{"input":50,"output":51,"interpolation":"LINEAR"},{"input":52,"output":53,"interpolation":"LINEAR"},{"input":54,"output":55,"interpolation":"LINEAR"}],"channels":[{"sampler":0,"target":{"node":14,"path":"rotation"}},{"sampler":1,"target":{"node":14,"path":"translation"}},{"sampler":2,"target":{"node":14,"path":"scale"}},{"sampler":3,"target":{"node":16,"path":"rotation"}}]},{"name":"look right","samplers":[{"input":56,"output":57,"interpolation":"LINEAR"},{"input":58,"output":59,"interpolation":"LINEAR"},{"input":60,"output":61,"interpolation":"LINEAR"},{"input":62,"output":63,"interpolation":"LINEAR"}],"channels":[{"sampler":0,"target":{"node":14,"path":"rotation"}},{"sampler":1,"target":{"node":14,"path":"translation"}},{"sampler":2,"target":{"node":14,"path":"scale"}},{"sampler":3,"target":{"node":16,"path":"rotation"}}]},{"name":"tongue attack 1","samplers":[{"input":64,"output":65,"interpolation":"LINEAR"},{"input":66,"output":67,"interpolation":"LINEAR"},{"input":68,"output":69,"interpolation":"LINEAR"}],"channels":[{"sampler":0,"target":{"node":18,"path":"rotation"}},{"sampler":1,"target":{"node":18,"path":"translation"}},{"sampler":2,"target":{"node":18,"path":"scale"}}]},{"name":"tongue attack 2","samplers":[{"input":70,"output":71,"interpolation":"LINEAR"},{"input":72,"output":73,"interpolation":"LINEAR"},{"input":74,"output":75,"interpolation":"LINEAR"}],"channels":[{"sampler":0,"target":{"node":18,"path":"rotation"}},{"sampler":1,"target":{"node":18,"path":"translation"}},{"sampler":2,"target":{"node":18,"path":"scale"}}]}]}