{"asset":{"version":"2.0","generator":"Blockbench 4.9.3 glTF exporter"},"scenes":[{"nodes":[31],"name":"blockbench_export"}],"scene":0,"nodes":[{"name":"pyramid","mesh":0},{"translation":[-0.125,0,0],"name":"LeftBottompetal1","mesh":1},{"translation":[0,0.0625,0],"name":"LeftMidpetal1","mesh":2},{"name":"LeftToppetal1","mesh":3},{"translation":[-0.5,0.0625,0],"name":"LeftToppetal","children":[3]},{"translation":[-0.625,0,0],"name":"LeftMidpetal","children":[2,4]},{"name":"Leftpetal","children":[1,5]},{"translation":[0,0,-0.125],"name":"LeftBottompetal2","mesh":4},{"translation":[0,0.0625,0],"name":"LeftMidpetal2","mesh":5},{"name":"LeftToppetal2","mesh":6},{"translation":[0,0.0625,-0.5],"name":"LeftToppetal2","children":[9]},{"translation":[0,0,-0.625],"name":"LeftMidpetal2","children":[8,10]},{"name":"Leftpetal2","children":[7,11]},{"translation":[0.125,0,0],"name":"RightBottompetal","mesh":7},{"translation":[0,0.0625,0],"name":"RightMidpetal","mesh":8},{"name":"RightToppetal","mesh":9},{"translation":[0.5,0.0625,0],"name":"RightToppetal","children":[15]},{"translation":[0.625,0,0],"name":"RightMidpetal","children":[14,16]},{"name":"Rightpetal","children":[13,17]},{"translation":[0,0,0.125],"name":"RightBottompetal","mesh":10},{"translation":[0,0.0625,0.0625],"name":"RightMidpetal","mesh":11},{"name":"RightToppetal","mesh":12},{"translation":[0,0.0625,0.5625],"name":"RightToppetal2","children":[21]},{"translation":[0,0,0.5625],"name":"RightMidpetal2","children":[20,22]},{"name":"Rightpetal2","children":[19,23]},{"rotation":[0,-0.3826834323650898,0,0.9238795325112867],"name":"cuboid","mesh":13},{"rotation":[0,-0.9238795325112867,0,0.38268343236508984],"name":"cuboid","mesh":14},{"rotation":[0,0.9238795325112867,0,0.38268343236508984],"name":"cuboid","mesh":15},{"rotation":[0,0.3826834323650898,0,0.9238795325112867],"name":"cuboid","mesh":16},{"translation":[0,-0.0625,0],"name":"bone","children":[25,26,27,28]},{"name":"Flower","children":[0,6,12,18,24,29]},{"children":[30]}],"bufferViews":[{"buffer":0,"byteOffset":0,"byteLength":768,"target":34962,"byteStride":12},{"buffer":0,"byteOffset":768,"byteLength":768,"target":34962,"byteStride":12},{"buffer":0,"byteOffset":1536,"byteLength":512,"target":34962,"byteStride":8},{"buffer":0,"byteOffset":2048,"byteLength":180,"target":34963},{"buffer":0,"byteOffset":2228,"byteLength":288,"target":34962,"byteStride":12},{"buffer":0,"byteOffset":2516,"byteLength":288,"target":34962,"byteStride":12},{"buffer":0,"byteOffset":2804,"byteLength":192,"target":34962,"byteStride":8},{"buffer":0,"byteOffset":2996,"byteLength":72,"target":34963},{"buffer":0,"byteOffset":3068,"byteLength":288,"target":34962,"byteStride":12},{"buffer":0,"byteOffset":3356,"byteLength":288,"target":34962,"byteStride":12},{"buffer":0,"byteOffset":3644,"byteLength":192,"target":34962,"byteStride":8},{"buffer":0,"byteOffset":3836,"byteLength":72,"target":34963},{"buffer":0,"byteOffset":3908,"byteLength":480,"target":34962,"byteStride":12},{"buffer":0,"byteOffset":4388,"byteLength":480,"target":34962,"byteStride":12},{"buffer":0,"byteOffset":4868,"byteLength":320,"target":34962,"byteStride":8},{"buffer":0,"byteOffset":5188,"byteLength":120,"target":34963},{"buffer":0,"byteOffset":5308,"byteLength":288,"target":34962,"byteStride":12},{"buffer":0,"byteOffset":5596,"byteLength":288,"target":34962,"byteStride":12},{"buffer":0,"byteOffset":5884,"byteLength":192,"target":34962,"byteStride":8},{"buffer":0,"byteOffset":6076,"byteLength":72,"target":34963},{"buffer":0,"byteOffset":6148,"byteLength":288,"target":34962,"byteStride":12},{"buffer":0,"byteOffset":6436,"byteLength":288,"target":34962,"byteStride":12},{"buffer":0,"byteOffset":6724,"byteLength":192,"target":34962,"byteStride":8},{"buffer":0,"byteOffset":6916,"byteLength":72,"target":34963},{"buffer":0,"byteOffset":6988,"byteLength":480,"target":34962,"byteStride":12},{"buffer":0,"byteOffset":7468,"byteLength":480,"target":34962,"byteStride":12},{"buffer":0,"byteOffset":7948,"byteLength":320,"target":34962,"byteStride":8},{"buffer":0,"byteOffset":8268,"byteLength":120,"target":34963},{"buffer":0,"byteOffset":8388,"byteLength":288,"target":34962,"byteStride":12},{"buffer":0,"byteOffset":8676,"byteLength":288,"target":34962,"byteStride":12},{"buffer":0,"byteOffset":8964,"byteLength":192,"target":34962,"byteStride":8},{"buffer":0,"byteOffset":9156,"byteLength":72,"target":34963},{"buffer":0,"byteOffset":9228,"byteLength":288,"target":34962,"byteStride":12},{"buffer":0,"byteOffset":9516,"byteLength":288,"target":34962,"byteStride":12},{"buffer":0,"byteOffset":9804,"byteLength":192,"target":34962,"byteStride":8},{"buffer":0,"byteOffset":9996,"byteLength":72,"target":34963},{"buffer":0,"byteOffset":10068,"byteLength":480,"target":34962,"byteStride":12},{"buffer":0,"byteOffset":10548,"byteLength":480,"target":34962,"byteStride":12},{"buffer":0,"byteOffset":11028,"byteLength":320,"target":34962,"byteStride":8},{"buffer":0,"byteOffset":11348,"byteLength":120,"target":34963},{"buffer":0,"byteOffset":11468,"byteLength":288,"target":34962,"byteStride":12},{"buffer":0,"byteOffset":11756,"byteLength":288,"target":34962,"byteStride":12},{"buffer":0,"byteOffset":12044,"byteLength":192,"target":34962,"byteStride":8},{"buffer":0,"byteOffset":12236,"byteLength":72,"target":34963},{"buffer":0,"byteOffset":12308,"byteLength":288,"target":34962,"byteStride":12},{"buffer":0,"byteOffset":12596,"byteLength":288,"target":34962,"byteStride":12},{"buffer":0,"byteOffset":12884,"byteLength":192,"target":34962,"byteStride":8},{"buffer":0,"byteOffset":13076,"byteLength":72,"target":34963},{"buffer":0,"byteOffset":13148,"byteLength":480,"target":34962,"byteStride":12},{"buffer":0,"byteOffset":13628,"byteLength":480,"target":34962,"byteStride":12},{"buffer":0,"byteOffset":14108,"byteLength":320,"target":34962,"byteStride":8},{"buffer":0,"byteOffset":14428,"byteLength":120,"target":34963},{"buffer":0,"byteOffset":14548,"byteLength":288,"target":34962,"byteStride":12},{"buffer":0,"byteOffset":14836,"byteLength":288,"target":34962,"byteStride":12},{"buffer":0,"byteOffset":15124,"byteLength":192,"target":34962,"byteStride":8},{"buffer":0,"byteOffset":15316,"byteLength":72,"target":34963},{"buffer":0,"byteOffset":15388,"byteLength":288,"target":34962,"byteStride":12},{"buffer":0,"byteOffset":15676,"byteLength":288,"target":34962,"byteStride":12},{"buffer":0,"byteOffset":15964,"byteLength":192,"target":34962,"byteStride":8},{"buffer":0,"byteOffset":16156,"byteLength":72,"target":34963},{"buffer":0,"byteOffset":16228,"byteLength":288,"target":34962,"byteStride":12},{"buffer":0,"byteOffset":16516,"byteLength":288,"target":34962,"byteStride":12},{"buffer":0,"byteOffset":16804,"byteLength":192,"target":34962,"byteStride":8},{"buffer":0,"byteOffset":16996,"byteLength":72,"target":34963},{"buffer":0,"byteOffset":17068,"byteLength":288,"target":34962,"byteStride":12},{"buffer":0,"byteOffset":17356,"byteLength":288,"target":34962,"byteStride":12},{"buffer":0,"byteOffset":17644,"byteLength":192,"target":34962,"byteStride":8},{"buffer":0,"byteOffset":17836,"byteLength":72,"target":34963},{"buffer":0,"byteOffset":17908,"byteLength":4},{"buffer":0,"byteOffset":17912,"byteLength":16},{"buffer":0,"byteOffset":17928,"byteLength":8},{"buffer":0,"byteOffset":17936,"byteLength":32},{"buffer":0,"byteOffset":17968,"byteLength":8},{"buffer":0,"byteOffset":17976,"byteLength":32},{"buffer":0,"byteOffset":18008,"byteLength":4},{"buffer":0,"byteOffset":18012,"byteLength":16},{"buffer":0,"byteOffset":18028,"byteLength":8},{"buffer":0,"byteOffset":18036,"byteLength":32},{"buffer":0,"byteOffset":18068,"byteLength":8},{"buffer":0,"byteOffset":18076,"byteLength":32},{"buffer":0,"byteOffset":18108,"byteLength":4},{"buffer":0,"byteOffset":18112,"byteLength":16},{"buffer":0,"byteOffset":18128,"byteLength":8},{"buffer":0,"byteOffset":18136,"byteLength":32},{"buffer":0,"byteOffset":18168,"byteLength":8},{"buffer":0,"byteOffset":18176,"byteLength":32},{"buffer":0,"byteOffset":18208,"byteLength":4},{"buffer":0,"byteOffset":18212,"byteLength":16},{"buffer":0,"byteOffset":18228,"byteLength":8},{"buffer":0,"byteOffset":18236,"byteLength":32},{"buffer":0,"byteOffset":18268,"byteLength":8},{"buffer":0,"byteOffset":18276,"byteLength":32}],"buffers":[{"byteLength":18308,"uri":"data:application/octet-stream;base64,"}],"accessors":[{"bufferView":0,"componentType":5126,"count":64,"max":[0.25,0.3125,0.25],"min":[-0.25,-2.8125,-0.25],"type":"VEC3"},{"bufferView":1,"componentType":5126,"count":64,"max":[1,0.4472135901451111,1],"min":[-1,-1,-1],"type":"VEC3"},{"bufferView":2,"componentType":5126,"count":64,"max":[0.05859375,0.1484375],"min":[0.01171875,0.1171875],"type":"VEC2"},{"bufferView":3,"componentType":5123,"count":90,"max":[63],"min":[0],"type":"SCALAR"},{"bufferView":4,"componentType":5126,"count":24,"max":[0,0.125,0.5],"min":[-0.5,0,-0.5],"type":"VEC3"},{"bufferView":5,"componentType":5126,"count":24,"max":[1,0.9922778606414795,0.8944271802902222],"min":[-1,-1,-0.8944271802902222],"type":"VEC3"},{"bufferView":6,"componentType":5126,"count":24,"max":[0.546875,0.19921875],"min":[0.453125,0.109375],"type":"VEC2"},{"bufferView":7,"componentType":5123,"count":36,"max":[23],"min":[0],"type":"SCALAR"},{"bufferView":8,"componentType":5126,"count":24,"max":[0,0.0625,0.75],"min":[-0.5,-0.0625,-0.75],"type":"VEC3"},{"bufferView":9,"componentType":5126,"count":24,"max":[1,1,0.8944271802902222],"min":[-1,-1,-0.8944271802902222],"type":"VEC3"},{"bufferView":10,"componentType":5126,"count":24,"max":[0.546875,0.234375],"min":[0.484375,0.140625],"type":"VEC2"},{"bufferView":11,"componentType":5123,"count":36,"max":[23],"min":[0],"type":"SCALAR"},{"bufferView":12,"componentType":5126,"count":40,"max":[0,0.0625,0.75],"min":[-0.6875,-0.0625,-0.75],"type":"VEC3"},{"bufferView":13,"componentType":5126,"count":40,"max":[1,1,1],"min":[-1,-1,-1],"type":"VEC3"},{"bufferView":14,"componentType":5126,"count":40,"max":[0.5,0.08984375],"min":[0.453125,0.01171875],"type":"VEC2"},{"bufferView":15,"componentType":5123,"count":60,"max":[39],"min":[0],"type":"SCALAR"},{"bufferView":16,"componentType":5126,"count":24,"max":[0.5,0.125,0],"min":[-0.5,0,-0.5],"type":"VEC3"},{"bufferView":17,"componentType":5126,"count":24,"max":[0.8944271802902222,0.9922778606414795,1],"min":[-0.8944271802902222,-1,-1],"type":"VEC3"},{"bufferView":18,"componentType":5126,"count":24,"max":[0.546875,0.19921875],"min":[0.453125,0.109375],"type":"VEC2"},{"bufferView":19,"componentType":5123,"count":36,"max":[23],"min":[0],"type":"SCALAR"},{"bufferView":20,"componentType":5126,"count":24,"max":[0.75,0.0625,0],"min":[-0.75,-0.0625,-0.5],"type":"VEC3"},{"bufferView":21,"componentType":5126,"count":24,"max":[0.8944271802902222,1,1],"min":[-0.8944271802902222,-1,-1],"type":"VEC3"},{"bufferView":22,"componentType":5126,"count":24,"max":[0.546875,0.234375],"min":[0.484375,0.140625],"type":"VEC2"},{"bufferView":23,"componentType":5123,"count":36,"max":[23],"min":[0],"type":"SCALAR"},{"bufferView":24,"componentType":5126,"count":40,"max":[0.75,0.0625,0],"min":[-0.75,-0.0625,-0.6875],"type":"VEC3"},{"bufferView":25,"componentType":5126,"count":40,"max":[1,1,1],"min":[-1,-1,-1],"type":"VEC3"},{"bufferView":26,"componentType":5126,"count":40,"max":[0.5,0.08984375],"min":[0.453125,0.01171875],"type":"VEC2"},{"bufferView":27,"componentType":5123,"count":60,"max":[39],"min":[0],"type":"SCALAR"},{"bufferView":28,"componentType":5126,"count":24,"max":[0.5,0.125,0.5],"min":[0,0,-0.5],"type":"VEC3"},{"bufferView":29,"componentType":5126,"count":24,"max":[1,0.9922778606414795,0.8944271802902222],"min":[-1,-1,-0.8944271802902222],"type":"VEC3"},{"bufferView":30,"componentType":5126,"count":24,"max":[0.546875,0.19921875],"min":[0.453125,0.109375],"type":"VEC2"},{"bufferView":31,"componentType":5123,"count":36,"max":[23],"min":[0],"type":"SCALAR"},{"bufferView":32,"componentType":5126,"count":24,"max":[0.5,0.0625,0.75],"min":[0,-0.0625,-0.75],"type":"VEC3"},{"bufferView":33,"componentType":5126,"count":24,"max":[1,1,0.8944271802902222],"min":[-1,-1,-0.8944271802902222],"type":"VEC3"},{"bufferView":34,"componentType":5126,"count":24,"max":[0.546875,0.234375],"min":[0.484375,0.140625],"type":"VEC2"},{"bufferView":35,"componentType":5123,"count":36,"max":[23],"min":[0],"type":"SCALAR"},{"bufferView":36,"componentType":5126,"count":40,"max":[0.6875,0.0625,0.75],"min":[0,-0.0625,-0.75],"type":"VEC3"},{"bufferView":37,"componentType":5126,"count":40,"max":[1,1,1],"min":[-1,-1,-1],"type":"VEC3"},{"bufferView":38,"componentType":5126,"count":40,"max":[0.5,0.08984375],"min":[0.453125,0.01171875],"type":"VEC2"},{"bufferView":39,"componentType":5123,"count":60,"max":[39],"min":[0],"type":"SCALAR"},{"bufferView":40,"componentType":5126,"count":24,"max":[0.5,0.125,0.5],"min":[-0.5,0,0],"type":"VEC3"},{"bufferView":41,"componentType":5126,"count":24,"max":[0.8944271802902222,0.9922778606414795,1],"min":[-0.8944271802902222,-1,-1],"type":"VEC3"},{"bufferView":42,"componentType":5126,"count":24,"max":[0.546875,0.19921875],"min":[0.453125,0.109375],"type":"VEC2"},{"bufferView":43,"componentType":5123,"count":36,"max":[23],"min":[0],"type":"SCALAR"},{"bufferView":44,"componentType":5126,"count":24,"max":[0.75,0.0625,0.5],"min":[-0.75,-0.0625,0],"type":"VEC3"},{"bufferView":45,"componentType":5126,"count":24,"max":[0.8944271802902222,1,1],"min":[-0.8944271802902222,-1,-1],"type":"VEC3"},{"bufferView":46,"componentType":5126,"count":24,"max":[0.546875,0.234375],"min":[0.484375,0.140625],"type":"VEC2"},{"bufferView":47,"componentType":5123,"count":36,"max":[23],"min":[0],"type":"SCALAR"},{"bufferView":48,"componentType":5126,"count":40,"max":[0.75,0.0625,0.6875],"min":[-0.75,-0.0625,0],"type":"VEC3"},{"bufferView":49,"componentType":5126,"count":40,"max":[1,1,1],"min":[-1,-1,-1],"type":"VEC3"},{"bufferView":50,"componentType":5126,"count":40,"max":[0.5,0.08984375],"min":[0.453125,0.01171875],"type":"VEC2"},{"bufferView":51,"componentType":5123,"count":60,"max":[39],"min":[0],"type":"SCALAR"},{"bufferView":52,"componentType":5126,"count":24,"max":[0,0.0625,0.4375],"min":[-1.1875,0,-0.4375],"type":"VEC3"},{"bufferView":53,"componentType":5126,"count":24,"max":[1,1,0.9670745134353638],"min":[-1,-1,-0.9670745134353638],"type":"VEC3"},{"bufferView":54,"componentType":5126,"count":24,"max":[0.859375,0.7984374761581421],"min":[0.609375,0.484375],"type":"VEC2"},{"bufferView":55,"componentType":5123,"count":36,"max":[23],"min":[0],"type":"SCALAR"},{"bufferView":56,"componentType":5126,"count":24,"max":[0,0.0625,0.4375],"min":[-1.1875,0,-0.4375],"type":"VEC3"},{"bufferView":57,"componentType":5126,"count":24,"max":[1,1,0.9670745134353638],"min":[-1,-1,-0.9670745134353638],"type":"VEC3"},{"bufferView":58,"componentType":5126,"count":24,"max":[0.859375,0.7984374761581421],"min":[0.609375,0.484375],"type":"VEC2"},{"bufferView":59,"componentType":5123,"count":36,"max":[23],"min":[0],"type":"SCALAR"},{"bufferView":60,"componentType":5126,"count":24,"max":[0,0.0625,0.4375],"min":[-1.1875,0,-0.4375],"type":"VEC3"},{"bufferView":61,"componentType":5126,"count":24,"max":[1,1,0.9670745134353638],"min":[-1,-1,-0.9670745134353638],"type":"VEC3"},{"bufferView":62,"componentType":5126,"count":24,"max":[0.859375,0.7984374761581421],"min":[0.609375,0.484375],"type":"VEC2"},{"bufferView":63,"componentType":5123,"count":36,"max":[23],"min":[0],"type":"SCALAR"},{"bufferView":64,"componentType":5126,"count":24,"max":[0,0.0625,0.4375],"min":[-1.1875,0,-0.4375],"type":"VEC3"},{"bufferView":65,"componentType":5126,"count":24,"max":[1,1,0.9670745134353638],"min":[-1,-1,-0.9670745134353638],"type":"VEC3"},{"bufferView":66,"componentType":5126,"count":24,"max":[0.859375,0.7984374761581421],"min":[0.609375,0.484375],"type":"VEC2"},{"bufferView":67,"componentType":5123,"count":36,"max":[23],"min":[0],"type":"SCALAR"},{"bufferView":68,"componentType":5126,"count":1,"max":[0],"min":[0],"type":"SCALAR"},{"bufferView":69,"componentType":5126,"count":1,"max":[0,0,-0.2164396196603775,0.9762960076332092],"min":[0,0,-0.2164396196603775,0.9762960076332092],"type":"VEC4"},{"bufferView":70,"componentType":5126,"count":2,"max":[0.25],"min":[0],"type":"SCALAR"},{"bufferView":71,"componentType":5126,"count":2,"max":[0,0,0,1],"min":[0,0,-0.2164396196603775,0.9762960076332092],"type":"VEC4"},{"bufferView":72,"componentType":5126,"count":2,"max":[0.25],"min":[0],"type":"SCALAR"},{"bufferView":73,"componentType":5126,"count":2,"max":[0,0,0,1],"min":[0,0,-0.2164396196603775,0.9762960076332092],"type":"VEC4"},{"bufferView":74,"componentType":5126,"count":1,"max":[0],"min":[0],"type":"SCALAR"},{"bufferView":75,"componentType":5126,"count":1,"max":[0,0,0.2164396196603775,0.9762960076332092],"min":[0,0,0.2164396196603775,0.9762960076332092],"type":"VEC4"},{"bufferView":76,"componentType":5126,"count":2,"max":[0.25],"min":[0],"type":"SCALAR"},{"bufferView":77,"componentType":5126,"count":2,"max":[0,0,0.2164396196603775,1],"min":[0,0,0,0.9762960076332092],"type":"VEC4"},{"bufferView":78,"componentType":5126,"count":2,"max":[0.25],"min":[0],"type":"SCALAR"},{"bufferView":79,"componentType":5126,"count":2,"max":[0,0,0.2164396196603775,1],"min":[0,0,0,0.9762960076332092],"type":"VEC4"},{"bufferView":80,"componentType":5126,"count":1,"max":[0],"min":[0],"type":"SCALAR"},{"bufferView":81,"componentType":5126,"count":1,"max":[0.2164396196603775,0,0,0.9762960076332092],"min":[0.2164396196603775,0,0,0.9762960076332092],"type":"VEC4"},{"bufferView":82,"componentType":5126,"count":2,"max":[0.25],"min":[0],"type":"SCALAR"},{"bufferView":83,"componentType":5126,"count":2,"max":[0.2164396196603775,0,0,1],"min":[0,0,0,0.9762960076332092],"type":"VEC4"},{"bufferView":84,"componentType":5126,"count":2,"max":[0.25],"min":[0],"type":"SCALAR"},{"bufferView":85,"componentType":5126,"count":2,"max":[0.2164396196603775,0,0,1],"min":[0,0,0,0.9762960076332092],"type":"VEC4"},{"bufferView":86,"componentType":5126,"count":1,"max":[0],"min":[0],"type":"SCALAR"},{"bufferView":87,"componentType":5126,"count":1,"max":[-0.2164396196603775,0,0,0.9762960076332092],"min":[-0.2164396196603775,0,0,0.9762960076332092],"type":"VEC4"},{"bufferView":88,"componentType":5126,"count":2,"max":[0.25],"min":[0],"type":"SCALAR"},{"bufferView":89,"componentType":5126,"count":2,"max":[0,0,0,1],"min":[-0.2164396196603775,0,0,0.9762960076332092],"type":"VEC4"},{"bufferView":90,"componentType":5126,"count":2,"max":[0.25],"min":[0],"type":"SCALAR"},{"bufferView":91,"componentType":5126,"count":2,"max":[0,0,0,1],"min":[-0.2164396196603775,0,0,0.9762960076332092],"type":"VEC4"}],"materials":[{"pbrMetallicRoughness":{"metallicFactor":0,"roughnessFactor":1,"baseColorTexture":{"index":0}},"alphaMode":"MASK","alphaCutoff":0.05,"doubleSided":true}],"textures":[{"sampler":0,"source":0}],"samplers":[{"magFilter":9728,"minFilter":9728,"wrapS":33071,"wrapT":33071}],"images":[{"mimeType":"image/png","uri":"data:image/png;base64,"}],"meshes":[{"primitives":[{"mode":4,"attributes":{"POSITION":0,"NORMAL":1,"TEXCOORD_0":2},"indices":3,"material":0}]},{"primitives":[{"mode":4,"attributes":{"POSITION":4,"NORMAL":5,"TEXCOORD_0":6},"indices":7,"material":0}]},{"primitives":[{"mode":4,"attributes":{"POSITION":8,"NORMAL":9,"TEXCOORD_0":10},"indices":11,"material":0}]},{"primitives":[{"mode":4,"attributes":{"POSITION":12,"NORMAL":13,"TEXCOORD_0":14},"indices":15,"material":0}]},{"primitives":[{"mode":4,"attributes":{"POSITION":16,"NORMAL":17,"TEXCOORD_0":18},"indices":19,"material":0}]},{"primitives":[{"mode":4,"attributes":{"POSITION":20,"NORMAL":21,"TEXCOORD_0":22},"indices":23,"material":0}]},{"primitives":[{"mode":4,"attributes":{"POSITION":24,"NORMAL":25,"TEXCOORD_0":26},"indices":27,"material":0}]},{"primitives":[{"mode":4,"attributes":{"POSITION":28,"NORMAL":29,"TEXCOORD_0":30},"indices":31,"material":0}]},{"primitives":[{"mode":4,"attributes":{"POSITION":32,"NORMAL":33,"TEXCOORD_0":34},"indices":35,"material":0}]},{"primitives":[{"mode":4,"attributes":{"POSITION":36,"NORMAL":37,"TEXCOORD_0":38},"indices":39,"material":0}]},{"primitives":[{"mode":4,"attributes":{"POSITION":40,"NORMAL":41,"TEXCOORD_0":42},"indices":43,"material":0}]},{"primitives":[{"mode":4,"attributes":{"POSITION":44,"NORMAL":45,"TEXCOORD_0":46},"indices":47,"material":0}]},{"primitives":[{"mode":4,"attributes":{"POSITION":48,"NORMAL":49,"TEXCOORD_0":50},"indices":51,"material":0}]},{"primitives":[{"mode":4,"attributes":{"POSITION":52,"NORMAL":53,"TEXCOORD_0":54},"indices":55,"material":0}]},{"primitives":[{"mode":4,"attributes":{"POSITION":56,"NORMAL":57,"TEXCOORD_0":58},"indices":59,"material":0}]},{"primitives":[{"mode":4,"attributes":{"POSITION":60,"NORMAL":61,"TEXCOORD_0":62},"indices":63,"material":0}]},{"primitives":[{"mode":4,"attributes":{"POSITION":64,"NORMAL":65,"TEXCOORD_0":66},"indices":67,"material":0}]}],"animations":[{"name":"idleanimation","samplers":[{"input":68,"output":69,"interpolation":"LINEAR"},{"input":70,"output":71,"interpolation":"LINEAR"},{"input":72,"output":73,"interpolation":"LINEAR"},{"input":74,"output":75,"interpolation":"LINEAR"},{"input":76,"output":77,"interpolation":"LINEAR"},{"input":78,"output":79,"interpolation":"LINEAR"},{"input":80,"output":81,"interpolation":"LINEAR"},{"input":82,"output":83,"interpolation":"LINEAR"},{"input":84,"output":85,"interpolation":"LINEAR"},{"input":86,"output":87,"interpolation":"LINEAR"},{"input":88,"output":89,"interpolation":"LINEAR"},{"input":90,"output":91,"interpolation":"LINEAR"}],"channels":[{"sampler":0,"target":{"node":6,"path":"rotation"}},{"sampler":1,"target":{"node":5,"path":"rotation"}},{"sampler":2,"target":{"node":4,"path":"rotation"}},{"sampler":3,"target":{"node":18,"path":"rotation"}},{"sampler":4,"target":{"node":17,"path":"rotation"}},{"sampler":5,"target":{"node":16,"path":"rotation"}},{"sampler":6,"target":{"node":12,"path":"rotation"}},{"sampler":7,"target":{"node":11,"path":"rotation"}},{"sampler":8,"target":{"node":10,"path":"rotation"}},{"sampler":9,"target":{"node":24,"path":"rotation"}},{"sampler":10,"target":{"node":23,"path":"rotation"}},{"sampler":11,"target":{"node":22,"path":"rotation"}}]}]}