{"asset":{"version":"2.0","generator":"Blockbench 4.9.3 glTF exporter"},"scenes":[{"nodes":[13],"name":"blockbench_export"}],"scene":0,"nodes":[{"rotation":[0.021814885034561134,0,0,0.9997620270799091],"name":"cuboid","mesh":0},{"rotation":[0.018892244620566906,0.010907442517280557,-0.49988101353995457,0.8658193131902271],"translation":[1.5,6.25,0],"name":"cuboid","mesh":1},{"name":"bone","children":[0,1]},{"rotation":[0.018892244620566906,0.010907442517280557,-0.49988101353995457,0.8658193131902271],"translation":[1.5,6.25,0],"name":"cuboid","mesh":2},{"rotation":[0.021814885034561134,0,0,0.9997620270799091],"name":"cuboid","mesh":3},{"rotation":[0.11161889704894985,-0.7544065067354887,0.13302222155948917,0.6330222215594893],"translation":[2.0625,0,0.3125],"name":"bone2","children":[3,4]},{"rotation":[-0.018892244620566906,0.010907442517280557,0.49988101353995457,0.8658193131902271],"translation":[-1.5,6.25,0],"name":"cuboid","mesh":4},{"rotation":[-0.021809693682668014,0.00047588920907111904,0.021809693682668,0.999524110790929],"name":"cuboid","mesh":5},{"rotation":[-0.021560992723439386,0.0033185541808011757,0.15208718494349097,0.9881263071930092],"name":"cuboid","mesh":6},{"rotation":[-0.11161889704894985,-0.7544065067354887,-0.13302222155948917,0.6330222215594893],"translation":[-2.0625,0,-0.3125],"name":"bone3","children":[6,7,8]},{"name":"trunk","mesh":7},{"translation":[0,6.3125,0],"name":"leaves","mesh":8},{"name":"tree","children":[2,5,9,10,11]},{"children":[12]}],"bufferViews":[{"buffer":0,"byteOffset":0,"byteLength":288,"target":34962,"byteStride":12},{"buffer":0,"byteOffset":288,"byteLength":288,"target":34962,"byteStride":12},{"buffer":0,"byteOffset":576,"byteLength":192,"target":34962,"byteStride":8},{"buffer":0,"byteOffset":768,"byteLength":72,"target":34963},{"buffer":0,"byteOffset":840,"byteLength":288,"target":34962,"byteStride":12},{"buffer":0,"byteOffset":1128,"byteLength":288,"target":34962,"byteStride":12},{"buffer":0,"byteOffset":1416,"byteLength":192,"target":34962,"byteStride":8},{"buffer":0,"byteOffset":1608,"byteLength":72,"target":34963},{"buffer":0,"byteOffset":1680,"byteLength":288,"target":34962,"byteStride":12},{"buffer":0,"byteOffset":1968,"byteLength":288,"target":34962,"byteStride":12},{"buffer":0,"byteOffset":2256,"byteLength":192,"target":34962,"byteStride":8},{"buffer":0,"byteOffset":2448,"byteLength":72,"target":34963},{"buffer":0,"byteOffset":2520,"byteLength":288,"target":34962,"byteStride":12},{"buffer":0,"byteOffset":2808,"byteLength":288,"target":34962,"byteStride":12},{"buffer":0,"byteOffset":3096,"byteLength":192,"target":34962,"byteStride":8},{"buffer":0,"byteOffset":3288,"byteLength":72,"target":34963},{"buffer":0,"byteOffset":3360,"byteLength":288,"target":34962,"byteStride":12},{"buffer":0,"byteOffset":3648,"byteLength":288,"target":34962,"byteStride":12},{"buffer":0,"byteOffset":3936,"byteLength":192,"target":34962,"byteStride":8},{"buffer":0,"byteOffset":4128,"byteLength":72,"target":34963},{"buffer":0,"byteOffset":4200,"byteLength":288,"target":34962,"byteStride":12},{"buffer":0,"byteOffset":4488,"byteLength":288,"target":34962,"byteStride":12},{"buffer":0,"byteOffset":4776,"byteLength":192,"target":34962,"byteStride":8},{"buffer":0,"byteOffset":4968,"byteLength":72,"target":34963},{"buffer":0,"byteOffset":5040,"byteLength":288,"target":34962,"byteStride":12},{"buffer":0,"byteOffset":5328,"byteLength":288,"target":34962,"byteStride":12},{"buffer":0,"byteOffset":5616,"byteLength":192,"target":34962,"byteStride":8},{"buffer":0,"byteOffset":5808,"byteLength":72,"target":34963},{"buffer":0,"byteOffset":5880,"byteLength":8544,"target":34962,"byteStride":12},{"buffer":0,"byteOffset":14424,"byteLength":8544,"target":34962,"byteStride":12},{"buffer":0,"byteOffset":22968,"byteLength":5696,"target":34962,"byteStride":8},{"buffer":0,"byteOffset":28664,"byteLength":2136,"target":34963},{"buffer":0,"byteOffset":30800,"byteLength":4416,"target":34962,"byteStride":12},{"buffer":0,"byteOffset":35216,"byteLength":4416,"target":34962,"byteStride":12},{"buffer":0,"byteOffset":39632,"byteLength":2944,"target":34962,"byteStride":8},{"buffer":0,"byteOffset":42576,"byteLength":1056,"target":34963}],"buffers":[{"byteLength":43632,"uri":"data:application/octet-stream;base64,"}],"accessors":[{"bufferView":0,"componentType":5126,"count":24,"max":[1.625,7.125,-0.125],"min":[1.375,6.125,-0.375],"type":"VEC3"},{"bufferView":1,"componentType":5126,"count":24,"max":[1,1,1],"min":[-1,-1,-1],"type":"VEC3"},{"bufferView":2,"componentType":5126,"count":24,"max":[0.37109375,0.27734375],"min":[0,0],"type":"VEC2"},{"bufferView":3,"componentType":5123,"count":36,"max":[23],"min":[0],"type":"SCALAR"},{"bufferView":4,"componentType":5126,"count":24,"max":[0.125,0.0625,0.125],"min":[-0.125,-0.9375,-0.125],"type":"VEC3"},{"bufferView":5,"componentType":5126,"count":24,"max":[1,1,1],"min":[-1,-1,-1],"type":"VEC3"},{"bufferView":6,"componentType":5126,"count":24,"max":[0.49609375,0.6015625],"min":[0.19921875,0],"type":"VEC2"},{"bufferView":7,"componentType":5123,"count":36,"max":[23],"min":[0],"type":"SCALAR"},{"bufferView":8,"componentType":5126,"count":24,"max":[0.125,0.0625,0.125],"min":[-0.125,-0.9375,-0.125],"type":"VEC3"},{"bufferView":9,"componentType":5126,"count":24,"max":[1,1,1],"min":[-1,-1,-1],"type":"VEC3"},{"bufferView":10,"componentType":5126,"count":24,"max":[0.33203125,0.66015625],"min":[0.03125,0],"type":"VEC2"},{"bufferView":11,"componentType":5123,"count":36,"max":[23],"min":[0],"type":"SCALAR"},{"bufferView":12,"componentType":5126,"count":24,"max":[1.625,7.125,-0.125],"min":[1.375,6.125,-0.375],"type":"VEC3"},{"bufferView":13,"componentType":5126,"count":24,"max":[1,1,1],"min":[-1,-1,-1],"type":"VEC3"},{"bufferView":14,"componentType":5126,"count":24,"max":[0.328125,0.6640625],"min":[0,0.26171875],"type":"VEC2"},{"bufferView":15,"componentType":5123,"count":36,"max":[23],"min":[0],"type":"SCALAR"},{"bufferView":16,"componentType":5126,"count":24,"max":[0.125,0.0625,0.125],"min":[-0.125,-0.9375,-0.125],"type":"VEC3"},{"bufferView":17,"componentType":5126,"count":24,"max":[1,1,1],"min":[-1,-1,-1],"type":"VEC3"},{"bufferView":18,"componentType":5126,"count":24,"max":[0.34765625,0.6796875],"min":[0.046875,0.27734375],"type":"VEC2"},{"bufferView":19,"componentType":5123,"count":36,"max":[23],"min":[0],"type":"SCALAR"},{"bufferView":20,"componentType":5126,"count":24,"max":[-1.125,7.1875,0.375],"min":[-1.375,6.1875,0.125],"type":"VEC3"},{"bufferView":21,"componentType":5126,"count":24,"max":[1,1,1],"min":[-1,-1,-1],"type":"VEC3"},{"bufferView":22,"componentType":5126,"count":24,"max":[0.6640625,0.703125],"min":[0.0390625,0],"type":"VEC2"},{"bufferView":23,"componentType":5123,"count":36,"max":[23],"min":[0],"type":"SCALAR"},{"bufferView":24,"componentType":5126,"count":24,"max":[0.75,8.0625,0.375],"min":[0.5,7.0625,0.125],"type":"VEC3"},{"bufferView":25,"componentType":5126,"count":24,"max":[1,1,1],"min":[-1,-1,-1],"type":"VEC3"},{"bufferView":26,"componentType":5126,"count":24,"max":[0.48828125,0.72265625],"min":[0.1484375,0.2890625],"type":"VEC2"},{"bufferView":27,"componentType":5123,"count":36,"max":[23],"min":[0],"type":"SCALAR"},{"bufferView":28,"componentType":5126,"count":712,"max":[1.625,7.1875,1.625],"min":[-1.625,0,-1.625],"type":"VEC3"},{"bufferView":29,"componentType":5126,"count":712,"max":[1,1,1],"min":[-1,-1,-1],"type":"VEC3"},{"bufferView":30,"componentType":5126,"count":712,"max":[0.80859375,0.9233788847923279],"min":[0,0],"type":"VEC2"},{"bufferView":31,"componentType":5123,"count":1068,"max":[711],"min":[0],"type":"SCALAR"},{"bufferView":32,"componentType":5126,"count":368,"max":[2.28125,2.625,2.875],"min":[-2.359375,0,-2.9094529151916504],"type":"VEC3"},{"bufferView":33,"componentType":5126,"count":368,"max":[0.9899494647979736,0.9754286408424377,0.9838699102401733],"min":[-1,-1,-0.9932240843772888],"type":"VEC3"},{"bufferView":34,"componentType":5126,"count":368,"max":[0.9567664861679077,0.9824033975601196],"min":[0.06727784872055054,0.052119433879852295],"type":"VEC2"},{"bufferView":35,"componentType":5123,"count":528,"max":[367],"min":[0],"type":"SCALAR"}],"materials":[{"pbrMetallicRoughness":{"metallicFactor":0,"roughnessFactor":1,"baseColorTexture":{"index":0}},"alphaMode":"MASK","alphaCutoff":0.05,"doubleSided":true}],"textures":[{"sampler":0,"source":0}],"samplers":[{"magFilter":9728,"minFilter":9728,"wrapS":33071,"wrapT":33071}],"images":[{"mimeType":"image/png","uri":"data:image/png;base64,"}],"meshes":[{"primitives":[{"mode":4,"attributes":{"POSITION":0,"NORMAL":1,"TEXCOORD_0":2},"indices":3,"material":0}]},{"primitives":[{"mode":4,"attributes":{"POSITION":4,"NORMAL":5,"TEXCOORD_0":6},"indices":7,"material":0}]},{"primitives":[{"mode":4,"attributes":{"POSITION":8,"NORMAL":9,"TEXCOORD_0":10},"indices":11,"material":0}]},{"primitives":[{"mode":4,"attributes":{"POSITION":12,"NORMAL":13,"TEXCOORD_0":14},"indices":15,"material":0}]},{"primitives":[{"mode":4,"attributes":{"POSITION":16,"NORMAL":17,"TEXCOORD_0":18},"indices":19,"material":0}]},{"primitives":[{"mode":4,"attributes":{"POSITION":20,"NORMAL":21,"TEXCOORD_0":22},"indices":23,"material":0}]},{"primitives":[{"mode":4,"attributes":{"POSITION":24,"NORMAL":25,"TEXCOORD_0":26},"indices":27,"material":0}]},{"primitives":[{"mode":4,"attributes":{"POSITION":28,"NORMAL":29,"TEXCOORD_0":30},"indices":31,"material":0}]},{"primitives":[{"mode":4,"attributes":{"POSITION":32,"NORMAL":33,"TEXCOORD_0":34},"indices":35,"material":0}]}]}